<svg width="105" height="105" viewBox="0 0 105 105" fill="none" xmlns="http://www.w3.org/2000/svg">
<mask id="mask0_18731_70477" style="mask-type:alpha" maskUnits="userSpaceOnUse" x="0" y="0" width="105" height="105">
<circle cx="52.8242" cy="52.9375" r="52" fill="#6857AC"/>
</mask>
<g mask="url(#mask0_18731_70477)">
<circle cx="52.8242" cy="52.9375" r="52" fill="#6857AC"/>
<g clip-path="url(#clip0_18731_70477)">
<mask id="mask1_18731_70477" style="mask-type:alpha" maskUnits="userSpaceOnUse" x="-1" y="0" width="109" height="107">
<ellipse cx="53.3363" cy="53.503" rx="53.7396" ry="53.128" fill="white"/>
</mask>
<g mask="url(#mask1_18731_70477)">
<path d="M138.558 61.7996C138.558 61.7996 130.186 88.2926 122.424 105.197L60.3827 102.149C60.3827 102.149 66.7587 78.6487 74.6316 60.414C74.687 60.414 108.286 58.4741 138.558 61.7996Z" fill="url(#paint0_linear_18731_70477)"/>
<path d="M137.173 62.307C138.725 62.9167 121.039 105.206 121.039 105.206L61.3267 102.157C61.3267 102.157 73.3579 63.3601 75.3538 61.3648C77.2944 59.3695 132.516 60.4226 137.173 62.307Z" fill="url(#paint1_linear_18731_70477)"/>
<g style="mix-blend-mode:color-burn">
<path d="M99.303 59.7963L114.827 105.189L82.282 103.415L74.7417 60.3505C74.6863 60.4059 92.539 59.7408 99.303 59.7963Z" fill="url(#paint2_linear_18731_70477)"/>
</g>
<g style="mix-blend-mode:hard-light">
<path d="M62.1533 33.252L60.3791 32.8086C60.3791 32.8086 57.3852 41.9537 55.9991 44.6695L57.4406 44.9466C57.4406 44.8912 60.3791 38.9607 62.1533 33.252Z" fill="url(#paint3_linear_18731_70477)"/>
</g>
<path d="M123.587 106.194C123.587 106.194 124.085 111.459 121.535 113.233L78.1231 110.295C78.1231 110.295 65.0939 105.806 65.0939 102.48L122.478 105.196C122.422 105.196 123.198 104.975 123.587 106.194Z" fill="url(#paint4_linear_18731_70477)"/>
<path d="M76.5689 98.2102C76.5689 98.2102 78.9529 100.871 78.7866 101.259C78.6203 101.647 76.1253 101.425 74.6838 100.316C74.6838 100.316 74.0739 100.538 73.2977 100.15C72.5215 99.7621 71.4681 98.4319 71.2463 96.9354C71.2463 96.9354 70.6365 96.2149 67.3099 96.4366C63.9833 96.6583 62.4309 97.268 62.4309 97.268L61.9319 96.0486C61.9319 96.0486 65.1476 93.222 68.5851 93.5545C72.078 93.8871 76.5689 98.2102 76.5689 98.2102Z" fill="url(#paint5_linear_18731_70477)"/>
<path d="M57.9972 12.8087C57.9972 12.8087 60.603 16.1896 60.4367 19.0717C60.2149 21.9538 55.4468 37.6944 55.4468 38.5812C55.4468 39.468 56.9438 42.2946 56.722 43.8465C56.5002 45.4538 49.0708 59.4208 43.4711 64.1873C43.4711 64.1873 39.4792 64.2982 37.2614 63.3005C37.2614 63.3005 35.1546 68.1779 34.4893 74.9397C34.4893 74.9397 22.9016 76.159 18.5216 69.9515C18.5216 69.9515 23.6224 59.1437 23.8996 54.5989C23.8996 54.5989 18.2998 40.133 12.0348 32.5953C12.0348 32.5953 13.7535 12.5316 26.2837 7.8205C38.8693 3.22026 53.6726 6.04692 57.9972 12.8087Z" fill="url(#paint6_linear_18731_70477)"/>
<path d="M47.6848 92.9526C47.6848 92.9526 60.3259 90.6248 68.9196 91.1791C68.9196 91.1791 72.8006 92.6201 76.349 94.6154C79.8973 96.6107 82.6695 98.9939 82.7249 99.4373C82.7804 99.8807 79.3429 100.768 76.2381 98.9385C73.1332 97.1649 72.0244 95.5576 72.0244 95.5576C72.0244 95.5576 67.3672 95.0588 64.595 95.7793C61.8228 96.4998 59.8269 97.7192 60.2704 98.2734C60.714 98.8277 62.0446 99.2156 64.9277 99.1602C67.7553 99.1048 70.472 98.7168 72.5234 99.9916C74.6302 101.266 74.2421 101.987 74.1867 102.43C74.1312 102.874 70.0839 102.763 67.2563 102.43C64.4287 102.098 57.1656 102.929 54.8924 102.707C52.6193 102.486 48.5165 98.4951 47.4076 98.1626C46.2987 97.83 41.6969 98.4951 41.6969 98.4951L44.9681 92.5647L47.6848 92.9526Z" fill="url(#paint7_linear_18731_70477)"/>
<path d="M1.27879 152.029C1.66689 154.246 7.26666 159.401 7.26666 159.401V162.616C7.26666 162.616 11.4803 165.22 25.1194 168.213C38.7584 171.206 58.1081 168.213 58.1081 168.213C58.718 164.833 56.8883 161.452 56.8883 161.452C56.8883 161.452 59.1061 158.68 58.4962 156.463C57.8863 154.246 52.8964 152.14 52.8964 152.14C46.1323 137.841 51.2886 119.828 51.2886 119.828C56.722 121.213 61.3238 123.818 64.983 126.257C65.0385 126.257 65.0385 126.312 65.0939 126.312C65.1494 126.368 65.2603 126.423 65.3157 126.479C65.3711 126.534 65.4266 126.534 65.482 126.59C69.0858 129.028 71.8026 131.301 73.6322 132.021C77.4023 133.518 91.7621 132.52 92.1502 130.469C92.3165 129.472 92.2057 126.756 91.7621 123.929C91.3186 121.213 90.5978 118.331 89.5444 116.669C89.3781 116.391 89.2117 116.17 88.99 115.948C86.3841 113.343 79.0102 109.574 74.2421 107.523C69.4739 105.473 61.6564 95.33 61.6564 95.33C61.6564 91.9491 61.1575 89.1225 60.603 87.0718C60.5476 86.8501 60.4921 86.5729 60.4367 86.4067C60.4367 86.4067 60.4367 86.4067 60.4367 86.3513C59.8823 84.4114 59.3278 83.3583 59.3278 83.3583C52.342 80.0328 48.0729 75.1555 48.0729 75.1555C46.1878 71.3866 40.089 72.7722 40.089 72.7722L11.314 85.7416C11.314 85.7416 3.99551 93.9998 0.336258 100.651C-0.938934 102.979 -1.77058 105.14 -1.6597 106.637C-1.32704 111.569 4.1064 138.34 5.32615 146.93V146.986C5.54792 148.427 5.60336 149.314 5.49247 149.535C4.88259 150.81 0.890678 149.812 1.27879 152.029Z" fill="url(#paint8_linear_18731_70477)"/>
<g style="mix-blend-mode:color-burn" opacity="0.9">
<path d="M30.2767 104.353C34.1023 94.5426 41.6426 76.3633 41.6426 76.3633L0.281956 100.584C-0.99324 102.912 -1.82489 105.073 -1.714 106.57C-1.38134 111.502 4.05209 138.273 5.27184 146.863L3.88576 129.405C7.98856 134.836 14.5309 137.386 14.5309 137.386C11.3152 134.615 9.76274 128.74 9.76274 128.74C9.76274 128.74 26.4511 114.218 30.2767 104.353Z" fill="#8B92AB"/>
</g>
<path d="M37.5391 71.2761H34.9887L33.8244 72.7171C33.8244 72.7171 29.2226 72.7726 24.2327 71.2761C19.2428 69.7242 19.6863 67.2301 19.6863 67.2301L20.2962 65.7891H18.8547C18.8547 65.7891 18.1894 66.3433 15.9162 65.7891C15.9162 65.7891 10.9818 71.387 12.9777 77.3728C12.9777 77.3728 14.6965 80.9754 22.1258 80.92C29.7216 80.8646 35.155 75.3775 37.5391 71.2761Z" fill="url(#paint9_linear_18731_70477)"/>
<path d="M-10.0847 84.7997C-10.0847 84.7997 -10.0293 86.5733 -9.58572 89.2891C-9.25306 91.7278 -8.58775 94.9424 -7.53433 98.157C-7.31255 98.7667 -7.09077 99.4318 -6.869 100.041C-6.31457 101.538 -5.64925 102.979 -4.87304 104.365C-0.215816 112.623 5.99381 118.332 8.21154 118.997C10.4293 119.717 24.5673 110.628 31.3314 97.9907C38.0954 85.3539 40.5349 77.6499 41.6992 76.3751C42.8635 75.1558 45.9684 73.7148 47.8534 74.8787L47.9089 74.9341C47.9643 74.9341 47.9643 74.9895 48.0198 75.0449L48.0752 75.1004C47.9643 74.8787 45.5248 70.0013 43.5843 68.6711C42.5863 68.006 40.3686 68.6711 38.4281 69.5579C37.7628 69.835 37.1529 70.1676 36.6539 70.4447C35.7114 70.9435 35.046 71.3315 35.046 71.3315H37.5964C37.5964 71.3315 27.9493 81.3079 14.9756 78.2042C14.9756 78.2042 10.7065 73.4376 16.0845 65.8445H19.023L20.409 66.4541L20.6308 65.5673L20.7417 65.1239C20.7417 65.1239 19.522 65.4565 17.526 64.5697C15.53 63.6829 14.3103 62.8515 12.7024 63.2949C11.0391 63.6275 -4.98394 72.6617 -10.0847 84.7997Z" fill="url(#paint10_linear_18731_70477)"/>
<path d="M56.1122 35.7932C56.1122 35.7932 50.1243 37.6222 46.6869 42.4996C43.2494 47.377 39.8673 58.5727 40.0337 59.2932C40.2 60.0138 43.4157 64.1706 43.4157 64.1706C43.4157 64.1706 39.8673 64.3923 37.2061 63.2838C37.2061 63.2838 36.4299 60.2909 33.6577 58.1847C33.6577 58.1847 24.1215 62.7296 19.686 67.2744C19.686 67.2744 22.4027 60.5126 23.0126 58.6836C23.6225 56.7991 27.559 43.1093 27.559 43.1093L32.9924 28.588L59.2725 24.93C59.217 24.8746 57.1656 32.4677 56.1122 35.7932Z" fill="url(#paint11_linear_18731_70477)"/>
<path d="M12.0336 20.0619C13.2534 14.2978 17.9106 9.47584 21.7916 6.42749L21.8471 6.37206C24.5083 4.26593 26.7815 2.99116 27.0587 2.82489H27.1142C27.1142 2.82489 24.0094 0.940451 23.6213 -2.16333C23.6213 -2.16333 25.8944 0.94045 29.6091 1.21757C33.3238 1.4947 41.6403 -3.43809 46.4639 -2.3296C50.2894 -1.44281 57.996 6.42749 57.996 6.42749H58.0515L58.1624 6.48291C58.3287 6.53834 58.6059 6.64919 58.994 6.81546L59.1049 6.87089C61.3781 7.8131 66.4789 10.2518 68.3085 13.2447C68.6411 13.799 68.8629 14.5195 68.8629 15.24C69.0847 19.4523 64.7601 26.1032 60.4355 29.4841C57.4416 31.812 55.0021 32.0891 53.5051 31.8674C51.1765 33.6964 48.8479 35.2483 46.7411 36.0242L44.5233 41.345C44.5233 41.345 44.8006 36.6893 41.6403 34.3615C41.6403 34.3615 40.0324 33.0313 38.3137 33.5856C38.3137 33.5856 35.2089 33.4193 33.7119 40.2919C32.3813 46.3332 33.7674 49.9358 34.2664 50.6563C34.2664 50.6563 30.5517 56.9747 27.0033 58.3049V57.0856C27.0033 57.0856 25.1182 59.3026 22.6233 59.8014C22.6233 59.8014 23.4549 55.5891 23.0114 54.3144C22.6233 53.0396 16.6909 39.7377 12.5881 34.3061V35.858C12.4772 35.5254 9.98223 29.9275 12.0336 20.0619ZM65.1482 20.6716C65.1482 20.6716 61.3226 25.1056 56.6654 29.2624C59.4376 27.9322 63.0968 25.3827 65.1482 20.6716Z" fill="url(#paint12_linear_18731_70477)"/>
<path d="M41.6426 35.2025C41.6426 35.2025 39.0922 35.0917 36.9853 38.528C34.8785 41.9643 34.7122 50.3335 34.7122 50.3335C34.7122 50.3335 32.1618 44.5693 34.5459 38.5834C36.7636 33.0964 39.4803 33.9278 39.4803 33.9278C39.4803 33.9278 41.0327 34.4266 41.6426 35.2025Z" fill="url(#paint13_linear_18731_70477)"/>
<path d="M39.7021 50.3244C39.7021 50.3244 38.1497 52.5968 36.8191 52.5414C35.4885 52.4859 35.1004 51.4329 35.1004 51.4329C35.1004 51.4329 38.0389 49.2713 39.7021 50.3244Z" fill="url(#paint14_linear_18731_70477)"/>
<path d="M40.9804 38.1289C40.9804 38.1289 38.929 40.0133 37.9311 42.3966C36.8776 44.8353 37.4321 48.1608 37.4321 48.1608C37.4321 48.1608 37.5984 45.2787 38.43 43.1171C39.3171 40.9556 41.6458 39.5145 41.6458 39.5145L42.2002 40.0688C42.2002 40.0688 41.7012 38.7386 40.9804 38.1289Z" fill="url(#paint15_linear_18731_70477)"/>
<path d="M40.3674 39.7305C40.3674 39.7305 41.1436 40.839 41.31 42.6126C41.4763 44.3861 40.2565 46.6586 38.815 47.3236C38.815 47.3236 40.312 45.7718 40.4229 44.109C40.5338 42.3909 39.4803 40.8944 39.4803 40.8944L40.3674 39.7305Z" fill="url(#paint16_linear_18731_70477)"/>
<path d="M43.4717 64.1743C43.4717 64.1743 40.2005 60.1283 38.3709 58.4102L37.262 63.2875C37.262 63.2875 39.0362 64.6177 43.4717 64.1743Z" fill="#BF5B71"/>
<path d="M36.7637 52.9326C36.7637 52.9326 35.7657 53.2651 34.3242 50.6602L32.051 53.9857C31.9955 53.9857 35.6548 54.5953 36.7637 52.9326Z" fill="#BF5B71"/>
<path d="M59.8271 36.5828L57.6649 35.6406H42.9169L43.6377 36.9154H56.5005L59.2173 38.1347L59.8271 36.5828Z" fill="url(#paint17_linear_18731_70477)"/>
<g style="mix-blend-mode:color-burn" opacity="0.9">
<path d="M12.6428 34.3012C16.7456 39.7328 22.678 53.0347 23.0661 54.3095C23.4542 55.5843 22.678 59.7965 22.678 59.7965C25.1729 59.2977 27.058 57.0807 27.058 57.0807V58.3001C30.6064 56.9699 34.321 50.6515 34.321 50.6515C33.8775 49.9309 32.4914 46.3283 33.7666 40.2871C35.2636 33.4144 38.3684 33.5807 38.3684 33.5807C40.0871 33.0264 41.695 34.3566 41.695 34.3566C44.7998 36.6845 44.578 41.3401 44.578 41.3401L46.7958 36.0194C48.9026 35.2434 51.2312 33.6915 53.5598 31.8625C55.0568 32.0288 57.4963 31.8071 60.4902 29.4793C64.8148 26.0984 69.1394 19.5028 68.9176 15.2351C68.8067 15.4568 67.8642 17.4521 64.7594 19.7799C61.5437 22.2186 54.835 25.9321 54.6133 26.0429C54.7241 25.8212 58.5497 18.0618 59.3259 14.7363C60.1021 11.3 59.1596 6.81058 59.1596 6.81058L59.0487 6.75516L58.2171 6.42261L58.1062 6.36719H58.0507C58.0507 6.36719 57.9953 12.2976 57.6072 14.3483C57.2191 16.399 46.1859 26.8743 41.695 29.6455C37.2595 32.4168 28.4441 34.1903 25.3947 33.8024C25.3947 33.8024 35.9843 29.8672 37.6476 28.4816C39.2555 27.1514 43.9127 20.0016 44.1899 19.5582C43.8018 20.0016 37.814 26.9851 35.2081 28.1491C32.4914 29.3684 22.4008 32.583 17.6881 32.5276C17.6881 32.5276 15.5812 30.4769 14.5833 25.3778C13.6407 20.5559 15.4704 16.5099 15.6921 16.1219C15.4704 16.5653 12.8091 21.3318 12.6982 24.9344C12.5319 28.8142 12.6428 34.3012 12.6428 34.3012Z" fill="url(#paint18_linear_18731_70477)"/>
</g>
<g style="mix-blend-mode:color-burn" opacity="0.9">
<path d="M56.002 5.58774C56.002 5.58774 48.9052 2.31769 46.2439 2.42854C43.5272 2.53939 36.4859 4.64552 33.5474 4.64552C30.609 4.64552 27.116 2.87193 27.116 2.87193L21.7935 6.47453C21.7935 6.47453 28.7793 7.5276 32.8821 7.25048C36.9849 6.97336 43.5272 3.14906 47.0202 3.86958C50.5131 4.5901 56.002 5.58774 56.002 5.58774Z" fill="url(#paint19_linear_18731_70477)"/>
</g>
<g style="mix-blend-mode:color-burn" opacity="0.9">
<path d="M44.8574 16.9068C44.8574 16.9068 39.923 15.1886 37.5389 15.5766C35.1548 15.9091 29.7214 21.7841 29.7214 21.7841C29.7214 21.7841 34.8776 18.4587 37.8716 17.6273C40.921 16.7959 44.8574 16.9068 44.8574 16.9068Z" fill="url(#paint20_linear_18731_70477)"/>
</g>
<g style="mix-blend-mode:overlay" opacity="0.9">
<path d="M35.9297 35.0938C35.9297 35.0938 32.215 37.0336 30.718 41.523C29.2211 46.0124 31.9932 53.9935 31.9932 53.9935L34.2664 50.6681C34.2664 50.6681 32.8249 48.5619 33.0466 43.74C33.2684 38.918 35.9297 35.0938 35.9297 35.0938Z" fill="url(#paint21_linear_18731_70477)"/>
</g>
<path opacity="0.5" d="M57.999 6.4152C57.999 6.4152 57.9436 11.348 56.6684 12.6782C55.4486 13.953 40.0909 13.5096 37.3187 14.3963C34.5465 15.2831 31.9407 18.2761 25.2321 19.828C18.5789 21.4353 14.5315 19.828 14.5315 19.828C14.5315 19.828 15.8067 16.7242 16.9156 14.3963L12.8128 17.4447C12.8128 17.4447 16.8047 9.96238 21.1847 6.4152C21.1847 6.4152 27.6161 8.52134 32.8278 7.19115C38.0949 5.86096 43.6947 3.14515 46.9658 3.81025C50.237 4.47534 55.9476 5.58383 55.9476 5.58383L57.999 6.4152Z" fill="url(#paint22_linear_18731_70477)"/>
<g style="mix-blend-mode:overlay" opacity="0.9">
<path d="M-2.82428 93.1109C-2.82428 93.1109 -0.606544 97.1015 1.44485 97.7112C3.5517 98.3208 19.0758 90.4506 25.0637 86.2383C31.0515 82.026 40.3105 70.664 40.3105 70.664L36.5404 70.3868C35.5979 70.8857 34.9326 71.2736 34.9326 71.2736H37.4829C37.4829 71.2736 27.8358 81.2501 14.8621 78.1463C14.8621 78.1463 10.593 73.3798 15.971 65.7866C15.971 65.7866 13.7532 65.1769 12.7553 65.7866C11.7573 66.3963 -1.21642 83.0791 -1.82629 84.1321C-2.32528 85.2406 -2.82428 93.1109 -2.82428 93.1109Z" fill="#8B92AB"/>
</g>
<g style="mix-blend-mode:overlay" opacity="0.69">
<path d="M-6.92657 100.039C-6.37214 101.536 -5.70682 102.977 -4.93061 104.362C-0.27338 112.621 5.93626 118.329 8.154 118.994C10.3717 119.715 24.5097 110.625 31.2738 97.9885C38.0379 85.3517 40.4774 77.6477 41.6417 76.3729C42.806 75.1536 45.9108 73.7125 47.7959 74.8765C47.1306 74.3776 45.1346 73.0474 43.8594 72.8812C42.2516 72.6595 32.4936 88.788 30.9966 89.8965C29.4996 90.9496 5.76992 107.632 5.16005 108.076C5.54815 107.965 18.1892 104.418 22.1257 102.977C22.1257 102.977 12.3677 117.276 8.37576 118.052C8.37576 117.997 -3.04554 108.298 -6.92657 100.039Z" fill="url(#paint23_linear_18731_70477)"/>
</g>
<g style="mix-blend-mode:color-burn" opacity="0.9">
<path d="M-8.80964 85.9034C-7.92255 88.0095 1.44736 97.6534 1.44736 97.6534C4.94028 97.4317 19.9654 89.3952 25.6206 85.7926C31.2758 82.2454 40.7012 70.1628 40.7012 70.1628L38.3726 69.4977C37.7072 69.7748 37.0974 70.1074 36.5984 70.3845C35.6558 70.8833 34.9905 71.2713 34.9905 71.2713H37.5409C37.5409 71.2713 27.8938 81.2477 14.9201 78.144C14.9201 78.144 10.6509 73.3774 16.0289 65.7843H18.9674L20.3535 66.3939L20.5753 65.5072L15.7517 64.6758C15.7517 64.6758 9.98562 66.0614 6.65902 68.1675C3.38787 70.2737 -9.69673 83.8527 -8.80964 85.9034Z" fill="#8B92AB"/>
</g>
<g style="mix-blend-mode:color-burn" opacity="0.9">
<path d="M66.7568 104.528C66.7568 104.528 59.6047 103.974 53.4505 102.92C47.3517 101.867 43.4707 99.207 43.4707 99.207C43.4707 99.207 50.2902 105.969 53.6168 106.578C56.8879 107.188 66.7568 104.528 66.7568 104.528Z" fill="#8B92AB"/>
</g>
<g style="mix-blend-mode:overlay">
<path d="M50.2388 102.154C57.2247 104.149 67.8143 104.26 67.8143 104.26C67.8143 104.26 68.3687 106.366 70.0875 108.084C71.8062 109.747 77.0179 112.019 81.3979 112.906C85.667 113.793 89.3817 116.509 89.6035 116.675C89.4372 116.398 89.2709 116.176 89.0491 115.954C86.4433 113.349 79.0693 109.581 74.3012 107.53C69.5331 105.479 61.7156 95.3364 61.7156 95.3364C61.7156 91.9555 61.2166 89.1288 60.6621 87.0781C61.3275 90.1265 59.8859 94.7267 59.8859 94.7267L63.8778 102.209C60.1077 103.983 51.015 102.32 50.2388 102.154Z" fill="url(#paint24_linear_18731_70477)"/>
</g>
<path d="M48.0176 75.0448C48.0176 75.0448 44.0257 70.0565 42.5842 69.2806C41.1426 68.5047 38.3705 69.5023 38.3705 69.5023C38.3705 69.5023 42.2515 67.507 43.4158 68.0058C43.4712 68.0058 46.6869 70.0011 48.0176 75.0448Z" fill="url(#paint25_linear_18731_70477)"/>
<g style="mix-blend-mode:overlay" opacity="0.69">
<path d="M30.999 89.8555C30.999 89.8555 26.1755 98.3908 22.6271 101.162C19.0233 103.933 5.16248 108.035 5.16248 108.035C5.16248 108.035 26.0091 94.622 30.999 89.8555Z" fill="url(#paint26_linear_18731_70477)"/>
</g>
<g style="mix-blend-mode:overlay">
<path d="M40.6991 70.1562H42.1406C42.1406 70.1562 34.7112 81.9063 33.0479 84.7329C31.4401 87.5596 4.77192 99.5867 2.49875 100.03C0.225582 100.529 -4.09898 98.8662 -4.09898 98.8662L1.38989 97.5914C1.38989 97.5914 24.8978 88.8343 30.2203 83.5136C35.5983 78.3591 40.6991 70.1562 40.6991 70.1562Z" fill="url(#paint27_linear_18731_70477)"/>
</g>
<g style="mix-blend-mode:hard-light">
<path d="M68.6973 16.9609C68.6973 16.9609 66.535 22.2817 61.8223 26.494C57.1096 30.7062 53.2286 31.9256 53.2286 31.9256C53.2286 31.9256 59.1056 32.8678 63.7074 26.2169C68.3092 19.6767 68.6973 16.9609 68.6973 16.9609Z" fill="url(#paint28_linear_18731_70477)"/>
</g>
<g style="mix-blend-mode:hard-light">
<path d="M56.1123 40.9062C56.1123 40.9062 56.0569 42.7907 55.7796 43.9546C55.5579 45.1185 47.6849 59.2518 43.4158 64.1846C43.4158 64.1846 52.7303 55.7046 56.9994 44.01C57.0548 44.01 56.445 41.793 56.1123 40.9062Z" fill="url(#paint29_linear_18731_70477)"/>
</g>
<path d="M121.036 105.478C121.036 105.478 115.88 106.531 104.791 106.642C93.6472 106.753 79.5092 103.316 79.5092 103.316C79.5092 103.316 113.773 104.702 121.036 105.478Z" fill="url(#paint30_linear_18731_70477)"/>
<path d="M35.3779 69.4379C35.3779 69.4379 34.2691 70.2138 29.889 70.6572C25.509 71.1006 20.8518 69.5487 19.7429 67.9414C19.7429 67.9414 19.9647 70.0475 24.5665 71.4886C29.1683 72.985 33.881 72.7079 33.881 72.7079C33.881 72.7079 34.8789 71.9874 35.0453 71.2669C35.1562 70.5464 35.3779 69.4379 35.3779 69.4379Z" fill="url(#paint31_linear_18731_70477)"/>
<path d="M18.9673 65.7891C18.9673 65.7891 15.6407 69.2254 16.306 73.8811C16.9714 78.5367 21.7949 78.6476 21.7949 78.6476C21.7949 78.6476 17.5812 78.7584 14.92 78.1488C14.92 78.1488 10.928 73.8256 16.0288 65.7891H18.9673Z" fill="url(#paint32_linear_18731_70477)"/>
<g style="mix-blend-mode:overlay" opacity="0.9">
<path d="M35.9297 28.1562C35.9297 28.1562 28.9993 32.036 24.342 33.865C19.7403 35.694 17.079 35.6386 17.079 35.6386L17.6334 32.6456C17.6334 32.6456 23.455 32.0914 27.0588 31.0383C30.6071 29.9853 35.9297 28.1562 35.9297 28.1562Z" fill="url(#paint33_linear_18731_70477)"/>
</g>
<g style="mix-blend-mode:overlay" opacity="0.9">
<path d="M47.7957 118.551C47.7957 118.551 41.3089 115.78 39.9782 114.228C37.9268 111.9 38.4813 93.8869 41.6415 88.0673C44.8018 82.2477 53.0074 81.5826 59.2725 83.3008C59.2725 83.3008 53.839 80.8066 47.0195 82.7465C40.2 84.6864 39.0911 93.0001 38.6476 96.2147C38.2595 99.4293 37.3169 113.285 39.202 114.948C41.198 116.611 47.7957 118.551 47.7957 118.551Z" fill="#8B92AB"/>
</g>
<g style="mix-blend-mode:overlay">
<path d="M59.3281 83.3009C59.3281 83.3009 56.4451 80.7514 47.7959 82.0262C47.7959 82.0262 42.0298 80.9731 41.3091 79.5875C40.5883 78.2019 41.6417 77.2042 41.6417 77.2042C41.6417 77.2042 45.5782 73.2691 48.0177 75.0981C48.0177 75.0427 54.7818 81.1394 59.3281 83.3009Z" fill="url(#paint34_linear_18731_70477)"/>
</g>
<path d="M80.7285 110.564C80.7285 110.564 77.9009 107.072 80.7285 103.192L67.9211 102.527C67.9211 102.527 71.0814 106.019 74.2417 107.516C77.4574 109.012 79.8414 110.065 80.7285 110.564Z" fill="url(#paint35_linear_18731_70477)"/>
</g>
</g>
</g>
<defs>
<linearGradient id="paint0_linear_18731_70477" x1="99.4975" y1="105.191" x2="99.4975" y2="59.831" gradientUnits="userSpaceOnUse">
<stop stop-color="#9C91DE"/>
<stop offset="1" stop-color="#CF95FF"/>
</linearGradient>
<linearGradient id="paint1_linear_18731_70477" x1="99.2975" y1="105.2" x2="99.2975" y2="60.2892" gradientUnits="userSpaceOnUse">
<stop stop-color="#6FFFFF"/>
<stop offset="1" stop-color="#00D6FF"/>
</linearGradient>
<linearGradient id="paint2_linear_18731_70477" x1="114.814" y1="82.4967" x2="74.6799" y2="82.4967" gradientUnits="userSpaceOnUse">
<stop stop-color="#F2EDFF"/>
<stop offset="1" stop-color="#AF8BC2"/>
</linearGradient>
<linearGradient id="paint3_linear_18731_70477" x1="59.087" y1="44.897" x2="59.087" y2="32.803" gradientUnits="userSpaceOnUse">
<stop stop-color="#6FFFFF"/>
<stop offset="1" stop-color="#00D6FF"/>
</linearGradient>
<linearGradient id="paint4_linear_18731_70477" x1="94.3416" y1="113.211" x2="94.3416" y2="102.458" gradientUnits="userSpaceOnUse">
<stop stop-color="#B9ACF4"/>
<stop offset="1" stop-color="#E1D1F5"/>
</linearGradient>
<linearGradient id="paint5_linear_18731_70477" x1="70.3961" y1="101.435" x2="70.3961" y2="93.5405" gradientUnits="userSpaceOnUse">
<stop offset="0.00558659" stop-color="#F48781"/>
<stop offset="1" stop-color="#EF7A8E"/>
</linearGradient>
<linearGradient id="paint6_linear_18731_70477" x1="36.2251" y1="75.0674" x2="36.2251" y2="5.58595" gradientUnits="userSpaceOnUse">
<stop offset="0.0159875" stop-color="#FFC2A9"/>
<stop offset="1" stop-color="#FF9595"/>
</linearGradient>
<linearGradient id="paint7_linear_18731_70477" x1="76.5247" y1="88.7117" x2="46.098" y2="106.284" gradientUnits="userSpaceOnUse">
<stop offset="0.0159875" stop-color="#FFC2A9"/>
<stop offset="1" stop-color="#FF9595"/>
</linearGradient>
<linearGradient id="paint8_linear_18731_70477" x1="45.2814" y1="169.493" x2="45.2814" y2="72.4291" gradientUnits="userSpaceOnUse">
<stop stop-color="#161270"/>
<stop offset="1" stop-color="#312AA2"/>
</linearGradient>
<linearGradient id="paint9_linear_18731_70477" x1="25.0973" y1="80.9169" x2="25.0973" y2="65.7984" gradientUnits="userSpaceOnUse">
<stop stop-color="#B9ACF4"/>
<stop offset="1" stop-color="#E1D1F5"/>
</linearGradient>
<linearGradient id="paint10_linear_18731_70477" x1="18.9699" y1="119.064" x2="18.9699" y2="63.1011" gradientUnits="userSpaceOnUse">
<stop stop-color="#1D1990"/>
<stop offset="1" stop-color="#314DC4"/>
</linearGradient>
<linearGradient id="paint11_linear_18731_70477" x1="39.4914" y1="67.2428" x2="39.4914" y2="24.887" gradientUnits="userSpaceOnUse">
<stop offset="0.00558659" stop-color="#F48781"/>
<stop offset="1" stop-color="#EF7A8E"/>
</linearGradient>
<linearGradient id="paint12_linear_18731_70477" x1="40.0436" y1="59.8205" x2="40.0436" y2="-2.49588" gradientUnits="userSpaceOnUse">
<stop stop-color="#47003E"/>
<stop offset="1" stop-color="#6A0B6A"/>
</linearGradient>
<linearGradient id="paint13_linear_18731_70477" x1="37.5749" y1="50.3566" x2="37.5749" y2="33.8987" gradientUnits="userSpaceOnUse">
<stop stop-color="#FF9595"/>
<stop offset="0.984" stop-color="#FFC2A9"/>
</linearGradient>
<linearGradient id="paint14_linear_18731_70477" x1="37.4175" y1="52.591" x2="37.4175" y2="50.0431" gradientUnits="userSpaceOnUse">
<stop stop-color="#FF9595"/>
<stop offset="0.984" stop-color="#FFC2A9"/>
</linearGradient>
<linearGradient id="paint15_linear_18731_70477" x1="39.7409" y1="48.1858" x2="39.7409" y2="38.1185" gradientUnits="userSpaceOnUse">
<stop stop-color="#DB5F69"/>
<stop offset="1" stop-color="#DC505E"/>
</linearGradient>
<linearGradient id="paint16_linear_18731_70477" x1="40.066" y1="47.2996" x2="40.066" y2="39.7243" gradientUnits="userSpaceOnUse">
<stop stop-color="#DB5F69"/>
<stop offset="1" stop-color="#DC505E"/>
</linearGradient>
<linearGradient id="paint17_linear_18731_70477" x1="51.3886" y1="38.1244" x2="51.3886" y2="35.6491" gradientUnits="userSpaceOnUse">
<stop stop-color="#382763"/>
<stop offset="1" stop-color="#5B38AE"/>
</linearGradient>
<linearGradient id="paint18_linear_18731_70477" x1="40.7173" y1="59.8156" x2="40.7173" y2="6.41995" gradientUnits="userSpaceOnUse">
<stop stop-color="#CCB8FF"/>
<stop offset="1" stop-color="#AF8BC2"/>
</linearGradient>
<linearGradient id="paint19_linear_18731_70477" x1="38.902" y1="7.23202" x2="38.902" y2="2.39229" gradientUnits="userSpaceOnUse">
<stop stop-color="#CCB8FF"/>
<stop offset="1" stop-color="#AF8BC2"/>
</linearGradient>
<linearGradient id="paint20_linear_18731_70477" x1="35.6685" y1="23.8914" x2="38.8636" y2="14.8285" gradientUnits="userSpaceOnUse">
<stop stop-color="#CCB8FF"/>
<stop offset="1" stop-color="#AF8BC2"/>
</linearGradient>
<linearGradient id="paint21_linear_18731_70477" x1="33.1101" y1="54.0024" x2="33.1101" y2="35.1072" gradientUnits="userSpaceOnUse">
<stop stop-color="#CCB8FF"/>
<stop offset="1" stop-color="#AF8BC2"/>
</linearGradient>
<linearGradient id="paint22_linear_18731_70477" x1="57.9745" y1="12.1136" x2="12.826" y2="12.1136" gradientUnits="userSpaceOnUse">
<stop stop-color="#AF8BC2"/>
<stop offset="1" stop-color="#F7F9FF"/>
</linearGradient>
<linearGradient id="paint23_linear_18731_70477" x1="47.7901" y1="95.9657" x2="-6.92857" y2="95.9657" gradientUnits="userSpaceOnUse">
<stop stop-color="#CCB8FF"/>
<stop offset="1" stop-color="#AF8BC2"/>
</linearGradient>
<linearGradient id="paint24_linear_18731_70477" x1="89.5667" y1="101.824" x2="50.2353" y2="101.824" gradientUnits="userSpaceOnUse">
<stop stop-color="#64ABFE"/>
<stop offset="0.4777" stop-color="#6365D1"/>
<stop offset="1" stop-color="#8642A0"/>
</linearGradient>
<linearGradient id="paint25_linear_18731_70477" x1="48.0321" y1="71.4959" x2="38.4072" y2="71.4959" gradientUnits="userSpaceOnUse">
<stop stop-color="#64ABFE"/>
<stop offset="0.4777" stop-color="#6365D1"/>
<stop offset="1" stop-color="#8642A0"/>
</linearGradient>
<linearGradient id="paint26_linear_18731_70477" x1="30.9897" y1="98.9633" x2="5.17218" y2="98.9633" gradientUnits="userSpaceOnUse">
<stop stop-color="#CCB8FF"/>
<stop offset="1" stop-color="#AF8BC2"/>
</linearGradient>
<linearGradient id="paint27_linear_18731_70477" x1="42.1859" y1="85.1696" x2="-4.01266" y2="85.1696" gradientUnits="userSpaceOnUse">
<stop stop-color="#AF8BC2"/>
<stop offset="1" stop-color="#CCB8FF"/>
</linearGradient>
<linearGradient id="paint28_linear_18731_70477" x1="60.9899" y1="32.0063" x2="60.9899" y2="16.9801" gradientUnits="userSpaceOnUse">
<stop stop-color="#6FFFFF"/>
<stop offset="1" stop-color="#00D6FF"/>
</linearGradient>
<linearGradient id="paint29_linear_18731_70477" x1="50.254" y1="64.2065" x2="50.254" y2="40.9285" gradientUnits="userSpaceOnUse">
<stop stop-color="#6FFFFF"/>
<stop offset="1" stop-color="#00D6FF"/>
</linearGradient>
<linearGradient id="paint30_linear_18731_70477" x1="115.356" y1="95.6824" x2="85.1431" y2="113.132" gradientUnits="userSpaceOnUse">
<stop stop-color="#F2EDFF"/>
<stop offset="1" stop-color="#AF8BC2"/>
</linearGradient>
<linearGradient id="paint31_linear_18731_70477" x1="27.5714" y1="72.7466" x2="27.5714" y2="67.9258" gradientUnits="userSpaceOnUse">
<stop offset="0.00558659" stop-color="#F48781"/>
<stop offset="1" stop-color="#EF7A8E"/>
</linearGradient>
<linearGradient id="paint32_linear_18731_70477" x1="21.7931" y1="72.2393" x2="13.4347" y2="72.2393" gradientUnits="userSpaceOnUse">
<stop stop-color="#CCB8FF"/>
<stop offset="1" stop-color="#AF8BC2"/>
</linearGradient>
<linearGradient id="paint33_linear_18731_70477" x1="26.5196" y1="35.6478" x2="26.5196" y2="28.1635" gradientUnits="userSpaceOnUse">
<stop stop-color="#CCB8FF"/>
<stop offset="1" stop-color="#AF8BC2"/>
</linearGradient>
<linearGradient id="paint34_linear_18731_70477" x1="50.1856" y1="83.2773" x2="50.1856" y2="74.5919" gradientUnits="userSpaceOnUse">
<stop stop-color="#AF8BC2"/>
<stop offset="1" stop-color="#CCB8FF"/>
</linearGradient>
<linearGradient id="paint35_linear_18731_70477" x1="80.7549" y1="106.553" x2="67.9388" y2="106.553" gradientUnits="userSpaceOnUse">
<stop stop-color="#8642A0"/>
<stop offset="1" stop-color="#6456C0"/>
</linearGradient>
<clipPath id="clip0_18731_70477">
<rect width="112" height="109" fill="white" transform="matrix(-1 0 0 1 109 -3)"/>
</clipPath>
</defs>
</svg>
